<svg width="16" height="13" viewBox="0 0 16 13" fill="none" xmlns="http://www.w3.org/2000/svg">
<path fill-rule="evenodd" clip-rule="evenodd" d="M2.27495 2.00533C2.29396 2.00183 2.31347 2 2.33333 2H13C13.0199 2 13.0395 2.00184 13.0585 2.00536L7.66675 5.77959L2.27495 2.00533ZM2 4.25418V10.3333C2 10.5144 2.15228 10.6667 2.33333 10.6667H13C13.181 10.6667 13.3333 10.5144 13.3333 10.3333V4.2543L8.24021 7.81948C7.89589 8.0605 7.43761 8.0605 7.09329 7.81948L2 4.25418ZM15.3333 2.3513V10.3333C15.3333 11.619 14.2856 12.6667 13 12.6667H2.33333C1.04772 12.6667 0 11.619 0 10.3333V2.33333C0 1.04772 1.04772 0 2.33333 0H13C14.2771 0 15.3194 1.03385 15.3332 2.30776C15.3336 2.32228 15.3336 2.3368 15.3333 2.3513Z" fill="black"/>
</svg>
