<?xml version="1.0" encoding="utf-8"?>
<!-- Generator: Adobe Illustrator 21.0.0, SVG Export Plug-In . SVG Version: 6.00 Build 0)  -->
<svg version="1.1" id="Layer_1" xmlns="http://www.w3.org/2000/svg" xmlns:xlink="http://www.w3.org/1999/xlink" x="0px" y="0px"
	 width="20px" height="20px" viewBox="0 0 20 20" style="enable-background:new 0 0 20 20;" xml:space="preserve">
<path d="M10,4.9c-2.8,0-5.1,2.3-5.1,5.1c0,2.8,2.3,5.1,5.1,5.1c2.8,0,5.1-2.3,5.1-5.1C15.1,7.2,12.8,4.9,10,4.9z M10,13.3
	c-1.8,0-3.3-1.5-3.3-3.3c0-1.8,1.5-3.3,3.3-3.3c1.8,0,3.3,1.5,3.3,3.3C13.3,11.8,11.8,13.3,10,13.3L10,13.3z M16.5,4.7
	c0,0.7-0.5,1.2-1.2,1.2c-0.7,0-1.2-0.5-1.2-1.2s0.5-1.2,1.2-1.2C16,3.5,16.5,4,16.5,4.7z M19.9,5.9c-0.1-1.6-0.4-3-1.6-4.2
	c-1.2-1.2-2.6-1.5-4.2-1.6C12.5,0,7.5,0,5.9,0.1c-1.6,0.1-3,0.4-4.2,1.6C0.5,2.9,0.2,4.3,0.1,5.9C0,7.5,0,12.5,0.1,14.1
	c0.1,1.6,0.4,3,1.6,4.2c1.2,1.2,2.6,1.5,4.2,1.6c1.7,0.1,6.6,0.1,8.2,0c1.6-0.1,3-0.4,4.2-1.6c1.2-1.2,1.5-2.6,1.6-4.2
	C20,12.5,20,7.5,19.9,5.9L19.9,5.9z M17.8,15.9c-0.3,0.9-1,1.5-1.9,1.9c-1.3,0.5-4.4,0.4-5.9,0.4c-1.5,0-4.6,0.1-5.9-0.4
	c-0.9-0.3-1.5-1-1.9-1.9c-0.5-1.3-0.4-4.4-0.4-5.9c0-1.5-0.1-4.6,0.4-5.9c0.3-0.9,1-1.5,1.9-1.9C5.4,1.7,8.5,1.8,10,1.8
	c1.5,0,4.6-0.1,5.9,0.4c0.9,0.3,1.5,1,1.9,1.9c0.5,1.3,0.4,4.4,0.4,5.9C18.2,11.5,18.3,14.6,17.8,15.9z"/>
</svg>
