<?xml version="1.0" encoding="utf-8"?>
<!-- Generator: Adobe Illustrator 21.0.0, SVG Export Plug-In . SVG Version: 6.00 Build 0)  -->
<svg version="1.1" id="Layer_1" xmlns="http://www.w3.org/2000/svg" xmlns:xlink="http://www.w3.org/1999/xlink" x="0px" y="0px"
	 width="20px" height="20px" viewBox="0 0 20 20" style="enable-background:new 0 0 20 20;" xml:space="preserve">
<path d="M18.6,0.4H1.4C0.6,0.4,0,1,0,1.8v16.4c0,0.8,0.6,1.4,1.4,1.4h17.1c0.8,0,1.4-0.6,1.4-1.4V1.8C20,1,19.4,0.4,18.6,0.4z
	 M6,16.8h-3V7.7h3L6,16.8L6,16.8z M4.6,6.4c-1,0-1.7-0.7-1.7-1.6s0.8-1.6,1.7-1.6c0.9,0,1.7,0.7,1.7,1.6C6.3,5.7,5.5,6.4,4.6,6.4
	L4.6,6.4z M17.2,16.8h-3v-4.4c0-1.1,0-2.4-1.5-2.4c-1.5,0-1.8,1.2-1.8,2.3v4.5h-3V7.7h2.8v1.2h0c0.4-0.7,1.4-1.5,2.8-1.5
	c3,0,3.6,1.9,3.6,4.4V16.8L17.2,16.8z"/>
</svg>
