<?xml version="1.0" encoding="utf-8"?>
<!-- Generator: Adobe Illustrator 21.0.0, SVG Export Plug-In . SVG Version: 6.00 Build 0)  -->
<svg version="1.1" id="Layer_1" xmlns="http://www.w3.org/2000/svg" xmlns:xlink="http://www.w3.org/1999/xlink" x="0px" y="0px"
	 width="20px" height="20px" viewBox="0 0 20 20" style="enable-background:new 0 0 20 20;" xml:space="preserve">
<path d="M2.5,7.5c0-3.7,2.6-6.8,6.2-7.4c4.1-0.7,8,2,8.7,6.1c0.3,1.9-0.1,3.7-0.8,5.4c-0.9,2.1-2.2,3.9-3.6,5.6
	c-0.8,0.9-1.6,1.7-2.4,2.6c-0.3,0.4-0.7,0.4-1,0c-2.3-2.1-4.3-4.5-5.7-7.3c-0.6-1.2-1-2.4-1.2-3.7C2.5,8.3,2.5,7.9,2.5,7.5z
	 M14.2,7.5c0-2.3-1.8-4.2-4.2-4.2c-2.3,0-4.2,1.8-4.2,4.2c0,2.3,1.8,4.2,4.2,4.2C12.3,11.7,14.1,9.9,14.2,7.5z"/>
</svg>
