<?xml version="1.0" encoding="utf-8"?>
<!-- Generator: Adobe Illustrator 21.0.0, SVG Export Plug-In . SVG Version: 6.00 Build 0)  -->
<svg version="1.1" id="Layer_1" xmlns="http://www.w3.org/2000/svg" xmlns:xlink="http://www.w3.org/1999/xlink" x="0px" y="0px"
	 width="20px" height="20px" viewBox="0 0 20 20" style="enable-background:new 0 0 20 20;" xml:space="preserve">
<path d="M2.6,0.9C3.8-0.4,5.9-0.3,7,1.2l1.8,2.4c0.9,1.2,0.8,2.8-0.3,3.8L7.2,8.7C7.3,9,7.7,9.7,9,11c1.3,1.3,2,1.7,2.3,1.8l1.3-1.3
	c1-1,2.7-1.1,3.8-0.3l2.4,1.8c1.4,1.1,1.6,3.2,0.3,4.4c-0.4,0.4-0.5,0.5-1.2,1.2c-0.7,0.7-2.2,1.3-3.7,1.4c-2.3,0.1-5.5-0.9-9.4-4.9
	C0.9,11.2-0.1,8,0,5.7C0.1,4.4,0.5,3,1.4,2C2.1,1.3,2.2,1.2,2.6,0.9L2.6,0.9z M2,5.8c-0.1,1.6,0.6,4.3,4.3,8s6.4,4.4,8,4.3
	c1.5-0.1,2.3-0.8,2.4-0.8l1.2-1.2c0.4-0.4,0.4-1.1-0.1-1.5l-2.4-1.8c-0.4-0.3-0.9-0.3-1.3,0.1c-0.5,0.5-0.9,0.9-1.6,1.6
	c-1.4,1.4-3.9-1.1-4.8-2.1C6.8,11.5,4.1,9,5.6,7.5c0,0,0.4-0.4,1.6-1.6c0.3-0.3,0.4-0.9,0.1-1.3L5.4,2.3C5.1,1.9,4.4,1.8,4,2.2
	C3.6,2.6,3.1,3.1,2.8,3.4C2.1,4.1,2,4.9,2,5.8L2,5.8z"/>
</svg>
