<svg width="23" height="23" viewBox="0 0 23 23" fill="none" xmlns="http://www.w3.org/2000/svg">
<path fill-rule="evenodd" clip-rule="evenodd" d="M11.75 0.5C12.481 0.5 13.0735 1.09256 13.0735 1.82353V11.8635L16.3288 8.60824C16.8457 8.09137 17.6837 8.09137 18.2006 8.60824C18.7175 9.12511 18.7175 9.96312 18.2006 10.48L12.6859 15.9947C12.4377 16.2429 12.101 16.3824 11.75 16.3824C11.399 16.3824 11.0623 16.2429 10.8141 15.9947L5.29942 10.48C4.78255 9.96312 4.78255 9.12511 5.29942 8.60824C5.81629 8.09137 6.6543 8.09137 7.17117 8.60824L10.4265 11.8635V1.82353C10.4265 1.09256 11.019 0.5 11.75 0.5ZM1.82353 13.7353C2.55449 13.7353 3.14706 14.3279 3.14706 15.0588V19.4706C3.14706 19.7046 3.24002 19.929 3.40549 20.0945C3.57097 20.26 3.7954 20.3529 4.02941 20.3529H19.4706C19.7046 20.3529 19.929 20.26 20.0945 20.0945C20.26 19.929 20.3529 19.7046 20.3529 19.4706V15.0588C20.3529 14.3279 20.9455 13.7353 21.6765 13.7353C22.4074 13.7353 23 14.3279 23 15.0588V19.4706C23 20.4066 22.6281 21.3044 21.9663 21.9663C21.3044 22.6282 20.4066 23 19.4706 23H4.02941C3.09335 23 2.19563 22.6282 1.53374 21.9663C0.871847 21.3044 0.5 20.4066 0.5 19.4706V15.0588C0.5 14.3279 1.09256 13.7353 1.82353 13.7353Z" fill="white"/>
</svg>
