<?xml version="1.0" encoding="utf-8"?>
<!-- Generator: Adobe Illustrator 21.0.0, SVG Export Plug-In . SVG Version: 6.00 Build 0)  -->
<svg version="1.1" id="Layer_1" xmlns="http://www.w3.org/2000/svg" xmlns:xlink="http://www.w3.org/1999/xlink" x="0px" y="0px"
	 width="20px" height="20px" viewBox="0 0 20 20" style="enable-background:new 0 0 20 20;" xml:space="preserve">
<style type="text/css">
	.st0{fill:none;}
</style>
<path class="st0" d="M47.2,55.8c0,0.2,0,0.4,0,0.6c0,5.9-4.1,12.7-11.7,12.7c-2.3,0-4.5-0.7-6.3-2c0.3,0,0.6,0.1,1,0.1
	c1.9,0,3.7-0.7,5.1-1.9c-1.8,0-3.3-1.3-3.8-3.1c0.3,0,0.5,0.1,0.8,0.1c0.4,0,0.7-0.1,1.1-0.2c-1.9-0.4-3.3-2.2-3.3-4.4v-0.1
	c0.5,0.3,1.2,0.5,1.9,0.6c-1.1-0.8-1.8-2.2-1.8-3.7c0-0.8,0.2-1.6,0.6-2.3c2,2.7,5.1,4.5,8.5,4.7c-0.1-0.3-0.1-0.7-0.1-1
	c0-2.5,1.8-4.5,4.1-4.5c1.2,0,2.2,0.5,3,1.4c0.9-0.2,1.8-0.6,2.6-1.1c-0.3,1-1,1.9-1.8,2.5c0.8-0.1,1.6-0.3,2.4-0.7
	C48.7,54.3,48,55.1,47.2,55.8L47.2,55.8z"/>
<path d="M11.1,7.4c1.1-1.4,2.2-2.7,3.3-4.1c0.6-0.8,1.3-1.6,1.9-2.4c0.4-0.5,0.8-0.6,1.2-0.3c0.4,0.3,0.4,0.7,0,1.3
	C15.8,4,14,6.2,12.3,8.3c-0.1,0.1-0.1,0.2-0.2,0.3c0.9,1.2,1.9,2.3,2.8,3.5c1.6,2,3.2,4,4.8,6c0.2,0.3,0.4,0.6,0.3,1
	c-0.2,0.4-0.6,0.5-1,0.5c-1.3,0-2.5,0-3.8,0c-0.4,0-0.7-0.1-1-0.5c-1.7-2.1-3.4-4.2-5-6.3C9,12.7,9,12.7,8.9,12.6
	c-1.2,1.5-2.5,3.1-3.7,4.6c-0.5,0.7-1,1.3-1.6,2c-0.4,0.5-0.8,0.5-1.1,0.3c-0.4-0.3-0.4-0.7,0-1.2c1.7-2.2,3.5-4.4,5.3-6.6
	c0.1-0.1,0.1-0.2,0.2-0.3C7,10.2,6.1,9,5.1,7.9c-1.6-2-3.2-4-4.8-6c-0.2-0.3-0.4-0.6-0.3-1c0.2-0.4,0.6-0.5,1-0.5c1.3,0,2.5,0,3.8,0
	c0.4,0,0.7,0.1,1,0.5c1.7,2.1,3.4,4.2,5,6.3C11,7.3,11,7.3,11.1,7.4z M2.3,1.9C2.4,2,2.4,2.1,2.4,2.1c4.2,5.3,8.4,10.5,12.6,15.7
	c0.1,0.1,0.2,0.2,0.2,0.2c0.8,0,1.6,0,2.4,0c-0.2-0.3-0.3-0.4-0.5-0.6c-1.6-2-3.2-4.1-4.9-6.1C9.9,8.3,7.4,5.3,5,2.2
	C4.9,2.1,4.7,1.9,4.6,1.9C3.8,1.9,3.1,1.9,2.3,1.9z"/>
</svg>
