<?xml version="1.0" encoding="utf-8"?>
<!-- Generator: Adobe Illustrator 21.0.0, SVG Export Plug-In . SVG Version: 6.00 Build 0)  -->
<svg version="1.1" id="Layer_1" xmlns="http://www.w3.org/2000/svg" xmlns:xlink="http://www.w3.org/1999/xlink" x="0px" y="0px"
	 width="20px" height="20px" viewBox="0 0 20 20" style="enable-background:new 0 0 20 20;" xml:space="preserve">
<path d="M19.6,5.3c-0.2-0.9-0.9-1.6-1.8-1.8C16.3,3,10,3,10,3S3.7,3,2.2,3.4C1.3,3.7,0.6,4.4,0.4,5.3C0,6.9,0,10.2,0,10.2
	s0,3.4,0.4,5c0.2,0.9,0.9,1.6,1.8,1.8c1.6,0.4,7.8,0.4,7.8,0.4s6.3,0,7.8-0.4c0.9-0.2,1.5-0.9,1.8-1.8c0.4-1.6,0.4-5,0.4-5
	S20,6.9,19.6,5.3L19.6,5.3z M8,13.3V7.2l5.2,3L8,13.3L8,13.3z"/>
</svg>
