<?xml version="1.0" encoding="utf-8"?>
<!-- Generator: Adobe Illustrator 21.0.0, SVG Export Plug-In . SVG Version: 6.00 Build 0)  -->
<svg version="1.1" id="Layer_1" xmlns="http://www.w3.org/2000/svg" xmlns:xlink="http://www.w3.org/1999/xlink" x="0px" y="0px"
	 width="175px" height="59px" viewBox="0 0 175 59" style="enable-background:new 0 0 175 59;" xml:space="preserve">
<style type="text/css">
	.st0{fill:#FFFFFF;}
</style>
<g>
	<path class="st0" d="M67.3,26.2h4.7c1.3,0,2.3,0.3,3.1,1c0.8,0.6,1.4,1.5,1.4,2.5c0,0.7,0,2-0.4,2.6c-0.4,0.6-1,1.1-1.8,1.4
		c-0.8,0.3-1.6,0.5-2.2,0.5l-2,0V38h-2.8V26.2z M70,28.7v3.1l1.7,0c0.5,0,0.9-0.2,1.3-0.5c0.4-0.3,0.5-0.7,0.5-1.1
		c0-0.5-0.2-0.9-0.6-1.1c-0.4-0.3-0.8-0.4-1.6-0.4L70,28.7z"/>
	<polygon class="st0" points="78.1,26.2 85.6,26.2 85.6,28.5 80.8,28.5 80.8,30.6 85.5,30.6 85.5,33.2 80.8,33.2 80.8,35.3 
		85.6,35.3 85.6,38 78.1,38 	"/>
	<path class="st0" d="M88.2,26.2h4.8c1.3,0,2.1,0.3,2.8,0.9c0.7,0.6,1,1.6,1.1,2.5c0.1,0.6,0,1.3-0.3,1.9c-0.3,0.7-1.3,1.4-2.3,1.6
		l3.7,4.9h-3.4l-3.5-4.7h-0.3V38h-2.7V26.2z M91,28.5v3h1c1.4,0,2.1-0.7,2.1-1.8c0-1.2-1.3-1.2-2.1-1.3H91z"/>
	<polygon class="st0" points="98.2,26.2 107.3,26.2 107.3,28.7 104.2,28.7 104.2,38 101.3,38 101.3,28.7 98.2,28.7 	"/>
	<path class="st0" d="M110.7,26.2h2.9l4,11.8h-2.9l-0.8-2.1h-3.6l-0.9,2.1h-2.7L110.7,26.2z M112.1,30l-1.3,3.7h2.4L112.1,30z"/>
	<polygon class="st0" points="120.4,26.2 123.1,26.2 125.3,32.7 127.8,26.2 130.4,26.2 132,38 129.3,38 128.5,31.3 125.9,38 
		124.8,38 122.3,31.2 121.1,38 118.7,38 	"/>
	<rect x="133.8" y="26.2" class="st0" width="2.8" height="11.8"/>
	<polygon class="st0" points="147.1,26.2 149.7,26.2 149.7,38 146.9,38 141.9,31 141.9,38 139.2,38 139.2,26.2 141.8,26.2 
		147.1,33.5 	"/>
	<path class="st0" d="M155.5,26.2h2.9l4,11.8h-2.9l-0.8-2.1h-3.6l-0.9,2.1h-2.7L155.5,26.2z M156.9,30l-1.3,3.7h2.4L156.9,30z"/>
	<path class="st0" d="M12.5,45.3c0,0,9.3-14.9,10.9-17.3c1.5-2.5,2.8-2.7,7-2.7h9.3c-0.5,0.5-1.5,1.4-2.2,2.5l-9.4,15.2
		c-0.9,1.7-2.9,2.3-5.3,2.3H12.5z"/>
	<path class="st0" d="M49.4,25.2c-4.2,0-5.5,0.2-7.1,2.7c-1.6,2.5-5.9,9.1-5.9,9.1h10.8c1.9,0,3.7-0.8,4.5-2.2l6.4-9.6H49.4z"/>
	<path class="st0" d="M45,10.6c4.2,0,5.5,0.2,7.1,2.7c1.6,2.5,5.9,9.1,5.9,9.1H47.3c-1.9,0-3.7-0.8-4.5-2.2l-6.4-9.6H45z"/>
	<g>
		<path class="st0" d="M74,40.9v7.4h-1.2v-3.2h-3.5v3.2h-1.2v-7.4h1.2v3.2h3.5v-3.2H74z"/>
		<path class="st0" d="M79.8,40.9v4.7c0,0.6,0.1,1,0.4,1.3c0.3,0.3,0.7,0.4,1.2,0.4c0.5,0,0.9-0.1,1.2-0.4c0.3-0.3,0.4-0.7,0.4-1.3
			v-4.7h1.2v4.7c0,0.6-0.1,1.1-0.4,1.5c-0.3,0.4-0.6,0.7-1.1,0.9c-0.4,0.2-0.9,0.3-1.5,0.3c-0.5,0-1-0.1-1.5-0.3
			c-0.4-0.2-0.8-0.5-1-0.9c-0.3-0.4-0.4-0.9-0.4-1.5v-4.7H79.8z"/>
		<path class="st0" d="M90.1,47.3h2.5v1h-3.7v-7.4h1.2V47.3z"/>
		<path class="st0" d="M97.8,40.9v4.7c0,0.6,0.1,1,0.4,1.3c0.3,0.3,0.7,0.4,1.2,0.4c0.5,0,0.9-0.1,1.2-0.4c0.3-0.3,0.4-0.7,0.4-1.3
			v-4.7h1.2v4.7c0,0.6-0.1,1.1-0.4,1.5c-0.3,0.4-0.6,0.7-1.1,0.9c-0.4,0.2-0.9,0.3-1.5,0.3c-0.5,0-1-0.1-1.5-0.3s-0.8-0.5-1-0.9
			c-0.3-0.4-0.4-0.9-0.4-1.5v-4.7H97.8z"/>
		<path class="st0" d="M113.8,41.9v2.2h2.6v1h-2.6v2.3h2.9v1h-4.1v-7.4h4.1v1H113.8z"/>
		<path class="st0" d="M127.3,48.3H126l-3.6-5.5v5.5h-1.2v-7.4h1.2l3.6,5.5v-5.5h1.2V48.3z"/>
		<path class="st0" d="M133,41.9v2.2h2.6v1H133v2.3h2.9v1h-4.1v-7.4h4.1v1H133z"/>
		<path class="st0" d="M144.2,48.3l-1.7-3h-0.9v3h-1.2v-7.4h2.6c0.6,0,1,0.1,1.4,0.3c0.4,0.2,0.7,0.5,0.9,0.8
			c0.2,0.3,0.3,0.7,0.3,1.1c0,0.5-0.1,0.9-0.4,1.3c-0.3,0.4-0.7,0.7-1.3,0.8l1.8,3.1H144.2z M141.6,44.4h1.3c0.5,0,0.8-0.1,1-0.3
			c0.2-0.2,0.3-0.5,0.3-0.9c0-0.4-0.1-0.7-0.3-0.9c-0.2-0.2-0.6-0.3-1-0.3h-1.3V44.4z"/>
		<path class="st0" d="M155.4,43c-0.2-0.4-0.5-0.6-0.8-0.8c-0.3-0.2-0.7-0.3-1.2-0.3c-0.5,0-0.9,0.1-1.3,0.3s-0.7,0.5-0.9,0.9
			c-0.2,0.4-0.3,0.9-0.3,1.4c0,0.5,0.1,1,0.3,1.4c0.2,0.4,0.5,0.7,0.9,0.9s0.8,0.3,1.3,0.3c0.7,0,1.2-0.2,1.6-0.6
			c0.4-0.4,0.7-0.9,0.8-1.5H153v-1h4.1v0.9c-0.1,0.6-0.3,1.1-0.6,1.6c-0.3,0.5-0.8,0.9-1.3,1.2c-0.5,0.3-1.1,0.4-1.8,0.4
			c-0.7,0-1.3-0.2-1.9-0.5c-0.6-0.3-1-0.8-1.4-1.3c-0.3-0.6-0.5-1.2-0.5-1.9c0-0.7,0.2-1.4,0.5-1.9c0.3-0.6,0.8-1,1.4-1.3
			c0.6-0.3,1.2-0.5,1.9-0.5c0.8,0,1.5,0.2,2.1,0.6c0.6,0.4,1.1,0.9,1.3,1.6H155.4z"/>
		<path class="st0" d="M162.5,40.9v7.4h-1.2v-7.4H162.5z"/>
	</g>
</g>
</svg>
