<?xml version="1.0" encoding="utf-8"?>
<!-- Generator: Adobe Illustrator 21.0.0, SVG Export Plug-In . SVG Version: 6.00 Build 0)  -->
<svg version="1.1" id="Layer_1" xmlns="http://www.w3.org/2000/svg" xmlns:xlink="http://www.w3.org/1999/xlink" x="0px" y="0px"
	 width="81px" height="43px" viewBox="0 0 81 43" style="enable-background:new 0 0 81 43;" xml:space="preserve">
<style type="text/css">
	.st0{fill:#0E74EA;}
</style>
<path class="st0" d="M81,3.6l-8.4,10.6c-3.6,4.6-10.5,4.8-14.5,0.5l-4.6-5c-1.8-2-5-2-6.8,0.1l-3.9,4.6c-3.8,4.5-10.6,4.5-14.5,0.1
	L23.8,9c-1.6-1.9-4.5-2.1-6.4-0.4L3.7,20.9l-3.3-3.7L14.1,4.9c4-3.5,10-3.1,13.5,0.9l4.7,5.4c1.8,2.1,5.1,2.1,6.9,0L43,6.5
	C46.7,2.1,53.4,2,57.3,6.2l4.6,5c1.9,2.1,5.1,1.9,6.9-0.2L77,0.4L81,3.6z"/>
<path class="st0" d="M81,25.6l-8.4,10.6c-3.6,4.6-10.5,4.8-14.5,0.5l-4.6-5c-1.8-2-5-2-6.8,0.1l-3.9,4.6c-3.8,4.5-10.6,4.5-14.5,0.1
	L23.8,31c-1.6-1.9-4.5-2.1-6.4-0.4L3.7,42.9l-3.3-3.7l13.7-12.3c4-3.5,10-3.1,13.5,0.9l4.7,5.4c1.8,2.1,5.1,2.1,6.9,0l3.9-4.6
	c3.7-4.4,10.4-4.5,14.3-0.3l4.6,5c1.9,2.1,5.1,1.9,6.9-0.2L77,22.4L81,25.6z"/>
</svg>
